<svg viewBox="0 0 92.3806 16" xmlns="http://www.w3.org/2000/svg" xmlns:xlink="http://www.w3.org/1999/xlink" width="92.380585" height="16.000000" fill="none" customFrame="#000000">
	<path id="Battleship" d="M0 16L7.16522 16L9.22898 13.9362L9.22898 9.48406L7.58261 7.83768L9.22898 6.19131L9.22898 2.06377L7.16522 0L0 0L0 16ZM9.81159 16L13.2667 16L13.6145 12.7536L15.8638 12.7536L16.2116 16L19.8522 16L17.5565 0L12.1072 0L9.81159 16ZM22.1935 16L25.8572 16L25.8572 3.36232L28.5471 3.36232L28.5471 0L19.5036 0L19.5036 3.36232L22.1935 3.36232L22.1935 16ZM31.7043 16L35.3681 16L35.3681 3.36232L38.058 3.36232L38.058 0L29.0145 0L29.0145 3.36232L31.7043 3.36232L31.7043 16ZM38.9946 16L45.9743 16L45.9743 12.7536L42.6583 12.7536L42.6583 0L38.9946 0L38.9946 16ZM47.1241 16L54.8226 16L54.8226 12.7536L50.7879 12.7536L50.7879 9.43768L54.3589 9.43768L54.3589 6.19131L50.7879 6.19131L50.7879 3.24638L54.7763 3.24638L54.7763 0L47.1241 0L47.1241 16ZM57.9902 16L63.0221 16L65.0859 13.9362L65.0859 8.02319L63.3699 6.30725L60.0772 6.30725L59.6598 5.88986L59.6598 3.54783L60.1931 3.01449L60.8656 3.01449L61.3989 3.54783L61.3989 5.12464L65.0627 5.12464L65.0627 2.06377L62.9989 0L58.0598 0L55.996 2.06377L55.996 7.90725L57.7119 9.62319L61.0047 9.62319L61.4221 10.0406L61.4221 12.4522L60.8888 12.9855L60.1235 12.9855L59.5902 12.4522L59.5902 10.8754L55.9264 10.8754L55.9264 13.9362L57.9902 16ZM66.4402 16L70.104 16L70.104 10.087L72.1446 10.087L72.1446 16L75.8083 16L75.8083 0L72.1446 0L72.1446 6.4L70.104 6.4L70.104 0L66.4402 0L66.4402 16ZM81.3186 16L81.3186 0L77.6549 0L77.6549 16L81.3186 16ZM83.1748 16L86.8386 16L86.8386 10.5043L90.3168 10.5043L92.3806 8.44058L92.3806 2.06377L90.3168 0L83.1748 0L83.1748 16ZM14.7507 2.34203L15.5391 9.76232L13.9391 9.76232L14.7507 2.34203ZM86.8386 7.72174L86.8386 2.78261L88.1835 2.78261L88.7168 3.31594L88.7168 7.18841L88.1835 7.72174L86.8386 7.72174ZM3.66377 6.42319L3.66377 2.89855L5.03188 2.89855L5.56522 3.43188L5.56522 5.88986L5.03188 6.42319L3.66377 6.42319ZM3.66377 13.1014L3.66377 9.29855L5.03188 9.29855L5.56522 9.83189L5.56522 12.5681L5.03188 13.1014L3.66377 13.1014Z" fill="rgb(53,56,57)" fill-rule="evenodd" />
</svg>
