<svg width="244" height="314" viewBox="0 0 244 314" fill="none" xmlns="http://www.w3.org/2000/svg">
<g clip-path="url(#clip0_426_11829)">
<rect width="244" height="313.318" fill="white"/>
<path d="M10.2608 30.6604H9.04082V28.8193H12.4346V37.1818H10.2608V30.6604Z" fill="#717C96" fill-opacity="0.7"/>
<path d="M14.3645 59.3636H7.63228L9.70628 57.212C10.2534 56.6427 10.6823 56.1621 10.9928 55.7702C11.3034 55.3709 11.5326 55.0345 11.6805 54.7609C11.8357 54.4873 11.9319 54.2655 11.9688 54.0955C12.0058 53.9254 12.0243 53.7812 12.0243 53.6629C12.0243 53.5372 12.0021 53.4152 11.9577 53.2969C11.9208 53.1786 11.8616 53.0751 11.7803 52.9864C11.6989 52.8903 11.5991 52.8163 11.4808 52.7646C11.3699 52.7054 11.2368 52.6758 11.0816 52.6758C10.7858 52.6758 10.5529 52.772 10.3828 52.9642C10.2202 53.1564 10.1388 53.3967 10.1388 53.6851C10.1388 53.7664 10.1499 53.8847 10.1721 54.04H7.79864C7.79864 53.552 7.87628 53.1084 8.03155 52.7091C8.19422 52.3098 8.41973 51.966 8.7081 51.6776C8.99646 51.3893 9.33658 51.1675 9.72846 51.0122C10.1277 50.8569 10.564 50.7793 11.0372 50.7793C11.503 50.7793 11.9319 50.8532 12.3237 51.0011C12.723 51.149 13.0668 51.356 13.3552 51.6222C13.6436 51.8884 13.8691 52.2063 14.0317 52.576C14.1944 52.9383 14.2757 53.3339 14.2757 53.7627C14.2757 54.2212 14.1759 54.6463 13.9763 55.0382C13.784 55.4227 13.4735 55.8183 13.0446 56.2249L11.6583 57.5226H14.3645V59.3636Z" fill="#717C96" fill-opacity="0.7"/>
<path d="M10.6379 76.4437C10.6971 76.451 10.7451 76.4547 10.7821 76.4547C10.8265 76.4547 10.8634 76.4547 10.893 76.4547C11.1666 76.4547 11.3884 76.3734 11.5585 76.2107C11.7285 76.0481 11.8136 75.8373 11.8136 75.5786C11.8136 75.3272 11.7322 75.1238 11.5696 74.9686C11.4143 74.8133 11.2109 74.7357 10.9596 74.7357C10.6934 74.7357 10.4789 74.8244 10.3163 75.0018C10.1536 75.1793 10.0723 75.4085 10.0723 75.6895H8.06482C8.11658 75.2532 8.22379 74.865 8.38646 74.5249C8.55652 74.1848 8.77095 73.9001 9.02973 73.6709C9.28852 73.4343 9.59167 73.2569 9.93919 73.1386C10.2867 73.0129 10.6712 72.95 11.0926 72.95C11.5067 72.95 11.8801 73.0092 12.2128 73.1275C12.5529 73.2384 12.8413 73.401 13.0779 73.6155C13.3219 73.8225 13.5068 74.0776 13.6325 74.3807C13.7656 74.6765 13.8321 75.0092 13.8321 75.3789C13.8321 75.7782 13.7545 76.1072 13.5992 76.366C13.4513 76.6174 13.2369 76.8355 12.9559 77.0204C13.3848 77.1535 13.7175 77.3938 13.9541 77.7413C14.1981 78.0814 14.3201 78.5029 14.3201 79.0057C14.3201 79.4197 14.2388 79.7968 14.0761 80.1369C13.9134 80.477 13.6842 80.7691 13.3885 81.0131C13.1001 81.2571 12.7526 81.4457 12.3459 81.5787C11.9466 81.7118 11.5067 81.7784 11.0261 81.7784C10.3828 81.7784 9.8024 81.6527 9.28482 81.4013C8.76725 81.1499 8.35319 80.7506 8.04264 80.2035C7.90216 79.9595 7.80604 79.7155 7.75428 79.4715C7.70991 79.2275 7.68773 78.9798 7.68773 78.7284H9.83937C9.85416 79.1203 9.96876 79.4197 10.1832 79.6267C10.3976 79.8264 10.686 79.9262 11.0483 79.9262C11.4328 79.9262 11.7137 79.8227 11.8912 79.6157C12.0686 79.4086 12.1574 79.1535 12.1574 78.8504C12.1574 78.4881 12.0502 78.2145 11.8357 78.0297C11.6213 77.8448 11.3662 77.7524 11.0705 77.7524C10.9965 77.7524 10.9263 77.7598 10.8597 77.7746C10.7932 77.782 10.7192 77.793 10.6379 77.8078V76.4437Z" fill="#717C96" fill-opacity="0.7"/>
<path d="M11.5141 100.345V97.0506L9.59537 100.345H11.5141ZM13.5326 100.345H14.5419V102.008H13.5326V103.727H11.5141V102.008H7.47701V100.611L10.6712 95.3647H13.5326V100.345Z" fill="#717C96" fill-opacity="0.7"/>
<path d="M13.5326 119.388H10.6379L10.4937 120.308C10.6268 120.293 10.7488 120.282 10.8597 120.275C10.9706 120.26 11.0852 120.253 11.2036 120.253C11.625 120.253 12.0169 120.327 12.3792 120.475C12.7415 120.622 13.052 120.826 13.3108 121.085C13.5696 121.343 13.7729 121.654 13.9208 122.016C14.0687 122.379 14.1426 122.774 14.1426 123.203C14.1426 123.654 14.0576 124.061 13.8876 124.423C13.7249 124.785 13.492 125.096 13.1888 125.355C12.8857 125.606 12.516 125.798 12.0797 125.931C11.6435 126.072 11.1592 126.142 10.6268 126.142C10.124 126.142 9.64343 126.079 9.18501 125.953C8.73398 125.835 8.30882 125.65 7.90955 125.399L8.23119 123.358C8.60088 123.676 8.97798 123.92 9.36246 124.09C9.74695 124.253 10.1129 124.334 10.4605 124.334C10.9041 124.334 11.2553 124.216 11.5141 123.979C11.7729 123.735 11.9023 123.436 11.9023 123.081C11.9023 122.667 11.7285 122.334 11.381 122.083C11.0335 121.824 10.5788 121.695 10.0168 121.695C9.76543 121.695 9.50664 121.724 9.24046 121.783C8.97428 121.835 8.71179 121.92 8.45301 122.038L9.15173 117.547H13.5326V119.388Z" fill="#717C96" fill-opacity="0.7"/>
<path d="M13.2997 139.728L10.9263 142.457H10.9706C11.1777 142.331 11.3477 142.257 11.4808 142.235C11.6139 142.205 11.7322 142.191 11.8357 142.191C12.2424 142.191 12.6158 142.268 12.9559 142.423C13.296 142.579 13.5918 142.793 13.8432 143.067C14.0946 143.333 14.2905 143.647 14.431 144.009C14.5715 144.372 14.6417 144.76 14.6417 145.174C14.6417 145.618 14.5604 146.032 14.3977 146.416C14.2351 146.793 13.9985 147.126 13.6879 147.414C13.3848 147.695 13.0151 147.917 12.5788 148.08C12.1426 148.243 11.6509 148.324 11.1037 148.324C10.5492 148.324 10.0538 148.243 9.61755 148.08C9.18131 147.917 8.80791 147.695 8.49737 147.414C8.19422 147.133 7.96131 146.808 7.79864 146.438C7.63598 146.061 7.55464 145.662 7.55464 145.241C7.55464 144.767 7.65816 144.257 7.86519 143.71C8.07961 143.155 8.40495 142.612 8.84119 142.08L10.7821 139.728H13.2997ZM9.70628 145.218C9.70628 145.411 9.74325 145.592 9.81719 145.762C9.89113 145.925 9.99095 146.069 10.1166 146.194C10.2423 146.32 10.3865 146.42 10.5492 146.494C10.7192 146.568 10.9004 146.605 11.0926 146.605C11.2849 146.605 11.4623 146.568 11.625 146.494C11.7951 146.42 11.9429 146.32 12.0686 146.194C12.1943 146.069 12.2942 145.925 12.3681 145.762C12.442 145.592 12.479 145.411 12.479 145.218C12.479 145.026 12.442 144.849 12.3681 144.686C12.2942 144.516 12.1943 144.368 12.0686 144.242C11.9429 144.117 11.7951 144.017 11.625 143.943C11.4623 143.869 11.2849 143.832 11.0926 143.832C10.9004 143.832 10.7192 143.869 10.5492 143.943C10.3865 144.017 10.2423 144.117 10.1166 144.242C9.99095 144.368 9.89113 144.516 9.81719 144.686C9.74325 144.849 9.70628 145.026 9.70628 145.218Z" fill="#717C96" fill-opacity="0.7"/>
<path d="M11.7026 163.751H8.20901V161.91H15.0743L10.283 170.273H7.88737L11.7026 163.751Z" fill="#717C96" fill-opacity="0.7"/>
<path d="M10.0945 189.926C10.0945 190.066 10.1203 190.199 10.1721 190.325C10.2239 190.451 10.2941 190.562 10.3828 190.658C10.4716 190.747 10.5751 190.82 10.6934 190.88C10.8191 190.931 10.9522 190.957 11.0926 190.957C11.2257 190.957 11.3514 190.931 11.4697 190.88C11.5954 190.82 11.7026 190.747 11.7914 190.658C11.8875 190.562 11.9614 190.454 12.0132 190.336C12.0649 190.21 12.0908 190.077 12.0908 189.937C12.0908 189.656 11.991 189.419 11.7914 189.227C11.5991 189.027 11.3662 188.928 11.0926 188.928C10.8117 188.928 10.5751 189.027 10.3828 189.227C10.1906 189.419 10.0945 189.652 10.0945 189.926ZM10.1721 186.221C10.1721 186.48 10.2608 186.702 10.4383 186.887C10.6157 187.064 10.8339 187.153 11.0926 187.153C11.2257 187.153 11.3477 187.127 11.4586 187.075C11.5696 187.024 11.6657 186.957 11.747 186.876C11.8283 186.787 11.8912 186.687 11.9356 186.576C11.9873 186.465 12.0132 186.351 12.0132 186.233C12.0132 185.981 11.9245 185.767 11.747 185.589C11.5696 185.404 11.3514 185.312 11.0926 185.312C10.8339 185.312 10.6157 185.401 10.4383 185.578C10.2608 185.756 10.1721 185.97 10.1721 186.221ZM9.55101 188.04C8.67852 187.678 8.24228 187.064 8.24228 186.199C8.24228 185.844 8.31252 185.526 8.45301 185.245C8.59349 184.957 8.78573 184.709 9.02973 184.502C9.28113 184.295 9.58058 184.136 9.9281 184.025C10.283 183.915 10.6712 183.859 11.0926 183.859C11.5141 183.859 11.8986 183.915 12.2461 184.025C12.601 184.136 12.9005 184.295 13.1445 184.502C13.3959 184.709 13.5918 184.957 13.7323 185.245C13.8728 185.526 13.943 185.844 13.943 186.199C13.943 186.421 13.9208 186.621 13.8765 186.798C13.8321 186.968 13.7545 187.127 13.6436 187.275C13.54 187.416 13.3996 187.549 13.2221 187.674C13.052 187.8 12.8376 187.922 12.5788 188.04C13.7175 188.484 14.2868 189.201 14.2868 190.192C14.2868 190.547 14.2055 190.876 14.0428 191.179C13.8876 191.482 13.6657 191.745 13.3774 191.967C13.0964 192.188 12.76 192.362 12.3681 192.488C11.9836 192.613 11.5585 192.676 11.0926 192.676C10.6416 192.676 10.2202 192.613 9.82828 192.488C9.44379 192.369 9.10737 192.199 8.81901 191.978C8.53064 191.756 8.30513 191.493 8.14246 191.19C7.97979 190.887 7.89846 190.554 7.89846 190.192C7.89846 189.179 8.44931 188.462 9.55101 188.04Z" fill="#717C96" fill-opacity="0.7"/>
<path d="M8.88555 214.636L11.259 211.908H11.2146C11.0076 212.034 10.8376 212.111 10.7045 212.141C10.5714 212.163 10.4531 212.174 10.3496 212.174C9.94288 212.174 9.56579 212.097 9.21828 211.941C8.87816 211.786 8.5824 211.575 8.33101 211.309C8.08701 211.036 7.89476 210.718 7.75428 210.355C7.61379 209.993 7.54355 209.605 7.54355 209.191C7.54355 208.747 7.62488 208.337 7.78755 207.96C7.95022 207.575 8.18313 207.242 8.48628 206.961C8.79682 206.673 9.17022 206.448 9.60646 206.285C10.0427 206.122 10.5344 206.041 11.0816 206.041C11.6361 206.041 12.1315 206.122 12.5677 206.285C13.004 206.448 13.3737 206.669 13.6768 206.95C13.9874 207.231 14.224 207.56 14.3866 207.937C14.5493 208.307 14.6306 208.703 14.6306 209.124C14.6306 209.597 14.5234 210.111 14.309 210.666C14.102 211.213 13.7803 211.753 13.3441 212.285L11.4032 214.636H8.88555ZM12.479 209.146C12.479 208.954 12.442 208.777 12.3681 208.614C12.2942 208.444 12.1943 208.296 12.0686 208.17C11.9429 208.045 11.7951 207.945 11.625 207.871C11.4623 207.797 11.2849 207.76 11.0926 207.76C10.9004 207.76 10.7192 207.797 10.5492 207.871C10.3865 207.945 10.2423 208.045 10.1166 208.17C9.99095 208.296 9.89113 208.444 9.81719 208.614C9.74325 208.777 9.70628 208.954 9.70628 209.146C9.70628 209.339 9.74325 209.52 9.81719 209.69C9.89113 209.852 9.99095 209.997 10.1166 210.122C10.2423 210.248 10.3865 210.348 10.5492 210.422C10.7192 210.496 10.9004 210.533 11.0926 210.533C11.2849 210.533 11.4623 210.496 11.625 210.422C11.7951 210.348 11.9429 210.248 12.0686 210.122C12.1943 209.997 12.2942 209.852 12.3681 209.69C12.442 209.52 12.479 209.339 12.479 209.146Z" fill="#717C96" fill-opacity="0.7"/>
<path d="M6.43641 230.297H5.21641V228.456H8.61023V236.818H6.43641V230.297ZM13.5196 232.626C13.5196 232.996 13.5529 233.332 13.6194 233.635C13.686 233.938 13.7784 234.201 13.8967 234.423C14.0224 234.644 14.1703 234.818 14.3403 234.944C14.5104 235.062 14.7026 235.121 14.9171 235.121C15.1241 235.121 15.3126 235.062 15.4827 234.944C15.6601 234.818 15.808 234.644 15.9263 234.423C16.0446 234.201 16.1371 233.938 16.2036 233.635C16.2701 233.332 16.3034 232.996 16.3034 232.626C16.3034 232.264 16.2701 231.931 16.2036 231.628C16.1371 231.317 16.0446 231.055 15.9263 230.84C15.808 230.618 15.6601 230.448 15.4827 230.33C15.3126 230.204 15.1241 230.141 14.9171 230.141C14.7026 230.141 14.5104 230.204 14.3403 230.33C14.1703 230.448 14.0224 230.618 13.8967 230.84C13.7784 231.055 13.686 231.317 13.6194 231.628C13.5529 231.931 13.5196 232.264 13.5196 232.626ZM11.368 232.626C11.368 231.96 11.453 231.358 11.6231 230.818C11.8005 230.271 12.0445 229.805 12.3551 229.421C12.673 229.036 13.0464 228.74 13.4752 228.533C13.9115 228.319 14.3921 228.212 14.9171 228.212C15.4346 228.212 15.9115 228.319 16.3478 228.533C16.784 228.74 17.1574 229.036 17.468 229.421C17.7785 229.805 18.0188 230.271 18.1889 230.818C18.3663 231.358 18.4551 231.96 18.4551 232.626C18.4551 233.291 18.3663 233.898 18.1889 234.445C18.0188 234.984 17.7785 235.45 17.468 235.842C17.1574 236.227 16.784 236.526 16.3478 236.741C15.9115 236.948 15.4346 237.051 14.9171 237.051C14.3921 237.051 13.9115 236.948 13.4752 236.741C13.0464 236.526 12.673 236.227 12.3551 235.842C12.0445 235.45 11.8005 234.984 11.6231 234.445C11.453 233.898 11.368 233.291 11.368 232.626Z" fill="#717C96" fill-opacity="0.7"/>
<path d="M34.2501 11.8945L33.2741 9.11073L32.2981 11.8945H34.2501ZM34.8269 13.5471H31.7214L31.2223 15H28.9043L32.0874 6.63745H34.4609L37.644 15H35.326L34.8269 13.5471Z" fill="#717C96" fill-opacity="0.7"/>
<path d="M54.6649 13.3142H55.1418C55.6889 13.3142 56.0808 13.2439 56.3174 13.1035C56.554 12.963 56.6723 12.7375 56.6723 12.4269C56.6723 12.1164 56.554 11.8908 56.3174 11.7504C56.0808 11.6099 55.6889 11.5396 55.1418 11.5396H54.6649V13.3142ZM54.6649 9.92036H55.0641C55.7444 9.92036 56.0845 9.65048 56.0845 9.11073C56.0845 8.57097 55.7444 8.30109 55.0641 8.30109H54.6649V9.92036ZM52.491 6.63745H55.7296C56.4986 6.63745 57.0827 6.8223 57.4819 7.192C57.8812 7.5617 58.0809 8.09406 58.0809 8.78909C58.0809 9.21055 58.0032 9.56176 57.8479 9.84273C57.7001 10.1163 57.4709 10.3492 57.1603 10.5415C57.4709 10.6006 57.7333 10.693 57.9478 10.8187C58.1696 10.937 58.347 11.0849 58.4801 11.2624C58.6206 11.4398 58.7204 11.6395 58.7796 11.8613C58.8387 12.0831 58.8683 12.3197 58.8683 12.5711C58.8683 12.963 58.7981 13.3105 58.6576 13.6136C58.5245 13.9168 58.3323 14.1719 58.0809 14.3789C57.8369 14.5859 57.5374 14.7412 57.1825 14.8447C56.8276 14.9482 56.4283 15 55.9847 15H52.491V6.63745Z" fill="#717C96" fill-opacity="0.7"/>
<path d="M80.8361 9.43236C80.3333 8.81867 79.7122 8.51182 78.9728 8.51182C78.6475 8.51182 78.3443 8.57097 78.0634 8.68927C77.7898 8.80758 77.5532 8.97024 77.3535 9.17727C77.1539 9.37691 76.9949 9.61721 76.8766 9.89818C76.7657 10.1792 76.7103 10.4823 76.7103 10.8076C76.7103 11.1404 76.7657 11.4472 76.8766 11.7282C76.9949 12.0092 77.1539 12.2532 77.3535 12.4602C77.5606 12.6672 77.8009 12.8299 78.0745 12.9482C78.348 13.0665 78.6438 13.1256 78.9617 13.1256C79.6568 13.1256 80.2815 12.8299 80.8361 12.2384V14.8115L80.6143 14.8891C80.2815 15.0074 79.971 15.0924 79.6826 15.1442C79.3943 15.2033 79.1096 15.2329 78.8286 15.2329C78.2519 15.2329 77.6974 15.1257 77.165 14.9113C76.64 14.6895 76.1742 14.3826 75.7675 13.9907C75.3683 13.5915 75.0466 13.1219 74.8026 12.5822C74.5586 12.035 74.4366 11.4398 74.4366 10.7965C74.4366 10.1533 74.5549 9.56545 74.7915 9.03309C75.0355 8.49333 75.3572 8.03121 75.7565 7.64673C76.1631 7.25485 76.6326 6.9517 77.165 6.73727C77.6974 6.51545 78.2556 6.40455 78.8397 6.40455C79.1725 6.40455 79.4978 6.44151 79.8157 6.51545C80.1411 6.582 80.4812 6.68921 80.8361 6.83709V9.43236Z" fill="#717C96" fill-opacity="0.7"/>
<path d="M98.5087 13.1589H99.0078C99.3849 13.1589 99.7213 13.0998 100.017 12.9815C100.313 12.8632 100.561 12.7005 100.76 12.4935C100.967 12.2864 101.122 12.0424 101.226 11.7615C101.337 11.4731 101.392 11.1588 101.392 10.8187C101.392 10.486 101.337 10.1755 101.226 9.88709C101.115 9.59873 100.956 9.35103 100.749 9.144C100.549 8.93697 100.302 8.7743 100.006 8.656C99.7103 8.5377 99.3775 8.47855 99.0078 8.47855H98.5087V13.1589ZM96.3349 6.63745H99.5513C100.121 6.63745 100.653 6.75206 101.148 6.98127C101.651 7.21048 102.087 7.51733 102.457 7.90182C102.834 8.27891 103.13 8.72255 103.344 9.23273C103.559 9.73551 103.666 10.2642 103.666 10.8187C103.666 11.3659 103.559 11.8945 103.344 12.4047C103.137 12.9075 102.845 13.3512 102.468 13.7356C102.098 14.1201 101.662 14.427 101.159 14.6562C100.664 14.8854 100.128 15 99.5513 15H96.3349V6.63745Z" fill="#717C96" fill-opacity="0.7"/>
<path d="M124.472 8.47855H121.887V9.876H124.327V11.7171H121.887V13.1589H124.472V15H119.714V6.63745H124.472V8.47855Z" fill="#717C96" fill-opacity="0.7"/>
<path d="M146.806 8.47855H144.188V9.876H146.573V11.7171H144.188V15H142.014V6.63745H146.806V8.47855Z" fill="#717C96" fill-opacity="0.7"/>
<path d="M166.431 10.3196H170.745C170.745 10.7633 170.727 11.1662 170.69 11.5285C170.653 11.8908 170.579 12.2273 170.468 12.5378C170.313 12.9741 170.102 13.3622 169.836 13.7024C169.57 14.0351 169.255 14.3161 168.893 14.5453C168.538 14.7671 168.146 14.9372 167.717 15.0555C167.289 15.1738 166.837 15.2329 166.364 15.2329C165.714 15.2329 165.118 15.1257 164.579 14.9113C164.046 14.6968 163.588 14.3974 163.203 14.0129C162.819 13.621 162.519 13.1552 162.305 12.6155C162.091 12.0683 161.983 11.4657 161.983 10.8076C161.983 10.157 162.087 9.56176 162.294 9.022C162.508 8.47485 162.808 8.00903 163.192 7.62455C163.584 7.24006 164.054 6.94061 164.601 6.72618C165.148 6.51176 165.758 6.40455 166.431 6.40455C167.303 6.40455 168.069 6.59309 168.727 6.97018C169.385 7.34727 169.906 7.93139 170.29 8.72255L168.228 9.57655C168.035 9.11812 167.784 8.78909 167.473 8.58945C167.17 8.38982 166.823 8.29 166.431 8.29C166.105 8.29 165.81 8.35285 165.544 8.47855C165.277 8.59685 165.048 8.77061 164.856 8.99982C164.671 9.22164 164.523 9.49151 164.412 9.80945C164.309 10.1274 164.257 10.4823 164.257 10.8742C164.257 11.2291 164.301 11.5581 164.39 11.8613C164.486 12.1644 164.627 12.4269 164.812 12.6487C164.996 12.8705 165.226 13.0443 165.499 13.17C165.773 13.2883 166.091 13.3475 166.453 13.3475C166.667 13.3475 166.874 13.3253 167.074 13.2809C167.274 13.2292 167.451 13.1515 167.606 13.048C167.769 12.9371 167.902 12.7966 168.006 12.6265C168.109 12.4565 168.179 12.2495 168.216 12.0055H166.431V10.3196Z" fill="#717C96" fill-opacity="0.7"/>
<path d="M186.976 9.86491H190.115V6.63745H192.289V15H190.115V11.5507H186.976V15H184.802V6.63745H186.976V9.86491Z" fill="#717C96" fill-opacity="0.7"/>
<path d="M211.817 6.63745V15H209.643V6.63745H211.817Z" fill="#717C96" fill-opacity="0.7"/>
<path d="M234.959 6.63745V12.438C234.959 12.682 234.945 12.9075 234.915 13.1145C234.893 13.3216 234.852 13.499 234.793 13.6469C234.697 13.8835 234.564 14.1016 234.394 14.3013C234.231 14.4935 234.039 14.6599 233.817 14.8004C233.595 14.9335 233.347 15.037 233.074 15.1109C232.808 15.1922 232.527 15.2329 232.231 15.2329C231.336 15.2329 230.608 14.8225 230.046 14.0018L231.466 12.5489C231.503 12.8003 231.584 12.9999 231.71 13.1478C231.835 13.2957 231.991 13.3696 232.176 13.3696C232.582 13.3696 232.786 13.048 232.786 12.4047V6.63745H234.959Z" fill="#717C96" fill-opacity="0.7"/>
<rect x="22.1819" y="22.1818" width="22.1818" height="22.1818" rx="2.77273" fill="#61C6FF" fill-opacity="0.2"/>
<rect x="22.1819" y="22.1818" width="22.1818" height="22.1818" rx="2.77273" stroke="white" stroke-width="1.38636"/>
<rect x="44.3635" y="22.1818" width="22.1818" height="22.1818" rx="2.77273" fill="#61C6FF" fill-opacity="0.2"/>
<rect x="44.3635" y="22.1818" width="22.1818" height="22.1818" rx="2.77273" stroke="white" stroke-width="1.38636"/>
<rect x="66.5454" y="22.1818" width="22.1818" height="22.1818" rx="2.77273" fill="#61C6FF" fill-opacity="0.2"/>
<rect x="66.5454" y="22.1818" width="22.1818" height="22.1818" rx="2.77273" stroke="white" stroke-width="1.38636"/>
<rect x="88.7273" y="22.1818" width="22.1818" height="22.1818" rx="2.77273" fill="#61C6FF" fill-opacity="0.2"/>
<rect x="88.7273" y="22.1818" width="22.1818" height="22.1818" rx="2.77273" stroke="white" stroke-width="1.38636"/>
<rect x="110.909" y="22.1818" width="22.1818" height="22.1818" rx="2.77273" fill="#61C6FF" fill-opacity="0.2"/>
<rect x="110.909" y="22.1818" width="22.1818" height="22.1818" rx="2.77273" stroke="white" stroke-width="1.38636"/>
<rect x="133.091" y="22.1818" width="22.1818" height="22.1818" rx="2.77273" fill="#61C6FF" fill-opacity="0.2"/>
<rect x="133.091" y="22.1818" width="22.1818" height="22.1818" rx="2.77273" stroke="white" stroke-width="1.38636"/>
<rect x="155.273" y="22.1818" width="22.1818" height="22.1818" rx="2.77273" fill="#61C6FF" fill-opacity="0.2"/>
<rect x="155.273" y="22.1818" width="22.1818" height="22.1818" rx="2.77273" stroke="white" stroke-width="1.38636"/>
<rect x="177.455" y="22.1818" width="22.1818" height="22.1818" rx="2.77273" fill="#61C6FF" fill-opacity="0.2"/>
<rect x="177.455" y="22.1818" width="22.1818" height="22.1818" rx="2.77273" stroke="white" stroke-width="1.38636"/>
<rect x="199.636" y="22.1818" width="22.1818" height="22.1818" rx="2.77273" fill="#61C6FF" fill-opacity="0.2"/>
<rect x="199.636" y="22.1818" width="22.1818" height="22.1818" rx="2.77273" stroke="white" stroke-width="1.38636"/>
<rect x="221.818" y="22.1818" width="22.1818" height="22.1818" rx="2.77273" fill="#61C6FF" fill-opacity="0.2"/>
<rect x="221.818" y="22.1818" width="22.1818" height="22.1818" rx="2.77273" stroke="white" stroke-width="1.38636"/>
<rect x="22.1819" y="44.3636" width="22.1818" height="22.1818" rx="2.77273" fill="#61C6FF" fill-opacity="0.2"/>
<rect x="22.1819" y="44.3636" width="22.1818" height="22.1818" rx="2.77273" stroke="white" stroke-width="1.38636"/>
<rect x="44.3635" y="44.3636" width="22.1818" height="22.1818" rx="2.77273" fill="#61C6FF" fill-opacity="0.2"/>
<rect x="44.3635" y="44.3636" width="22.1818" height="22.1818" rx="2.77273" stroke="white" stroke-width="1.38636"/>
<rect x="66.5454" y="44.3636" width="22.1818" height="22.1818" rx="2.77273" fill="#61C6FF" fill-opacity="0.2"/>
<rect x="66.5454" y="44.3636" width="22.1818" height="22.1818" rx="2.77273" stroke="white" stroke-width="1.38636"/>
<rect x="88.7273" y="44.3636" width="22.1818" height="22.1818" rx="2.77273" fill="#61C6FF" fill-opacity="0.2"/>
<rect x="88.7273" y="44.3636" width="22.1818" height="22.1818" rx="2.77273" stroke="white" stroke-width="1.38636"/>
<rect x="110.909" y="44.3636" width="22.1818" height="22.1818" rx="2.77273" fill="#61C6FF" fill-opacity="0.2"/>
<rect x="110.909" y="44.3636" width="22.1818" height="22.1818" rx="2.77273" stroke="white" stroke-width="1.38636"/>
<rect x="133.091" y="44.3636" width="22.1818" height="22.1818" rx="2.77273" fill="#61C6FF" fill-opacity="0.2"/>
<rect x="133.091" y="44.3636" width="22.1818" height="22.1818" rx="2.77273" stroke="white" stroke-width="1.38636"/>
<rect x="155.273" y="44.3636" width="22.1818" height="22.1818" rx="2.77273" fill="#61C6FF" fill-opacity="0.2"/>
<rect x="155.273" y="44.3636" width="22.1818" height="22.1818" rx="2.77273" stroke="white" stroke-width="1.38636"/>
<rect x="177.455" y="44.3636" width="22.1818" height="22.1818" rx="2.77273" fill="#61C6FF" fill-opacity="0.2"/>
<rect x="177.455" y="44.3636" width="22.1818" height="22.1818" rx="2.77273" stroke="white" stroke-width="1.38636"/>
<rect x="199.636" y="44.3636" width="22.1818" height="22.1818" rx="2.77273" fill="#61C6FF" fill-opacity="0.2"/>
<rect x="199.636" y="44.3636" width="22.1818" height="22.1818" rx="2.77273" stroke="white" stroke-width="1.38636"/>
<rect x="221.818" y="44.3636" width="22.1818" height="22.1818" rx="2.77273" fill="#61C6FF" fill-opacity="0.2"/>
<rect x="221.818" y="44.3636" width="22.1818" height="22.1818" rx="2.77273" stroke="white" stroke-width="1.38636"/>
<rect x="22.1819" y="66.5455" width="22.1818" height="22.1818" rx="2.77273" fill="#61C6FF" fill-opacity="0.2"/>
<rect x="22.1819" y="66.5455" width="22.1818" height="22.1818" rx="2.77273" stroke="white" stroke-width="1.38636"/>
<rect x="44.3635" y="66.5455" width="22.1818" height="22.1818" rx="2.77273" fill="#61C6FF" fill-opacity="0.2"/>
<rect x="44.3635" y="66.5455" width="22.1818" height="22.1818" rx="2.77273" stroke="white" stroke-width="1.38636"/>
<rect x="66.5454" y="66.5455" width="22.1818" height="22.1818" rx="2.77273" fill="#61C6FF" fill-opacity="0.2"/>
<rect x="66.5454" y="66.5455" width="22.1818" height="22.1818" rx="2.77273" stroke="white" stroke-width="1.38636"/>
<rect x="88.7273" y="66.5455" width="22.1818" height="22.1818" rx="2.77273" fill="#61C6FF" fill-opacity="0.2"/>
<rect x="88.7273" y="66.5455" width="22.1818" height="22.1818" rx="2.77273" stroke="white" stroke-width="1.38636"/>
<rect x="110.909" y="66.5455" width="22.1818" height="22.1818" rx="2.77273" fill="#61C6FF" fill-opacity="0.2"/>
<rect x="110.909" y="66.5455" width="22.1818" height="22.1818" rx="2.77273" stroke="white" stroke-width="1.38636"/>
<rect x="133.091" y="66.5455" width="22.1818" height="22.1818" rx="2.77273" fill="#61C6FF" fill-opacity="0.2"/>
<rect x="133.091" y="66.5455" width="22.1818" height="22.1818" rx="2.77273" stroke="white" stroke-width="1.38636"/>
<rect x="155.273" y="66.5455" width="22.1818" height="22.1818" rx="2.77273" fill="#61C6FF" fill-opacity="0.2"/>
<rect x="155.273" y="66.5455" width="22.1818" height="22.1818" rx="2.77273" stroke="white" stroke-width="1.38636"/>
<rect x="177.455" y="66.5455" width="22.1818" height="22.1818" rx="2.77273" fill="#61C6FF" fill-opacity="0.2"/>
<rect x="177.455" y="66.5455" width="22.1818" height="22.1818" rx="2.77273" stroke="white" stroke-width="1.38636"/>
<rect x="199.636" y="66.5455" width="22.1818" height="22.1818" rx="2.77273" fill="#61C6FF" fill-opacity="0.2"/>
<rect x="199.636" y="66.5455" width="22.1818" height="22.1818" rx="2.77273" stroke="white" stroke-width="1.38636"/>
<rect x="221.818" y="66.5455" width="22.1818" height="22.1818" rx="2.77273" fill="#61C6FF" fill-opacity="0.2"/>
<rect x="221.818" y="66.5455" width="22.1818" height="22.1818" rx="2.77273" stroke="white" stroke-width="1.38636"/>
<rect x="22.1819" y="88.7273" width="22.1818" height="22.1818" rx="2.77273" fill="#61C6FF" fill-opacity="0.2"/>
<rect x="22.1819" y="88.7273" width="22.1818" height="22.1818" rx="2.77273" stroke="white" stroke-width="1.38636"/>
<rect x="44.3635" y="88.7273" width="22.1818" height="22.1818" rx="2.77273" fill="#61C6FF" fill-opacity="0.2"/>
<rect x="44.3635" y="88.7273" width="22.1818" height="22.1818" rx="2.77273" stroke="white" stroke-width="1.38636"/>
<rect x="66.5454" y="88.7273" width="22.1818" height="22.1818" rx="2.77273" fill="#61C6FF" fill-opacity="0.2"/>
<rect x="66.5454" y="88.7273" width="22.1818" height="22.1818" rx="2.77273" stroke="white" stroke-width="1.38636"/>
<rect x="88.7273" y="88.7273" width="22.1818" height="22.1818" rx="2.77273" fill="#61C6FF" fill-opacity="0.2"/>
<rect x="88.7273" y="88.7273" width="22.1818" height="22.1818" rx="2.77273" stroke="white" stroke-width="1.38636"/>
<rect x="110.909" y="88.7273" width="22.1818" height="22.1818" rx="2.77273" fill="#61C6FF" fill-opacity="0.2"/>
<rect x="110.909" y="88.7273" width="22.1818" height="22.1818" rx="2.77273" stroke="white" stroke-width="1.38636"/>
<rect x="133.091" y="88.7273" width="22.1818" height="22.1818" rx="2.77273" fill="#61C6FF" fill-opacity="0.2"/>
<rect x="133.091" y="88.7273" width="22.1818" height="22.1818" rx="2.77273" stroke="white" stroke-width="1.38636"/>
<rect x="155.273" y="88.7273" width="22.1818" height="22.1818" rx="2.77273" fill="#61C6FF" fill-opacity="0.2"/>
<rect x="155.273" y="88.7273" width="22.1818" height="22.1818" rx="2.77273" stroke="white" stroke-width="1.38636"/>
<rect x="177.455" y="88.7273" width="22.1818" height="22.1818" rx="2.77273" fill="#61C6FF" fill-opacity="0.2"/>
<rect x="177.455" y="88.7273" width="22.1818" height="22.1818" rx="2.77273" stroke="white" stroke-width="1.38636"/>
<rect x="199.636" y="88.7273" width="22.1818" height="22.1818" rx="2.77273" fill="#61C6FF" fill-opacity="0.2"/>
<rect x="199.636" y="88.7273" width="22.1818" height="22.1818" rx="2.77273" stroke="white" stroke-width="1.38636"/>
<rect x="221.818" y="88.7273" width="22.1818" height="22.1818" rx="2.77273" fill="#61C6FF" fill-opacity="0.2"/>
<rect x="221.818" y="88.7273" width="22.1818" height="22.1818" rx="2.77273" stroke="white" stroke-width="1.38636"/>
<rect x="22.1819" y="110.909" width="22.1818" height="22.1818" rx="2.77273" fill="#61C6FF" fill-opacity="0.2"/>
<rect x="22.1819" y="110.909" width="22.1818" height="22.1818" rx="2.77273" stroke="white" stroke-width="1.38636"/>
<rect x="44.3635" y="110.909" width="22.1818" height="22.1818" rx="2.77273" fill="#61C6FF" fill-opacity="0.2"/>
<rect x="44.3635" y="110.909" width="22.1818" height="22.1818" rx="2.77273" stroke="white" stroke-width="1.38636"/>
<rect x="66.5454" y="110.909" width="22.1818" height="22.1818" rx="2.77273" fill="#61C6FF" fill-opacity="0.2"/>
<rect x="66.5454" y="110.909" width="22.1818" height="22.1818" rx="2.77273" stroke="white" stroke-width="1.38636"/>
<rect x="88.7273" y="110.909" width="22.1818" height="22.1818" rx="2.77273" fill="#61C6FF" fill-opacity="0.2"/>
<rect x="88.7273" y="110.909" width="22.1818" height="22.1818" rx="2.77273" stroke="white" stroke-width="1.38636"/>
<rect x="110.909" y="110.909" width="22.1818" height="22.1818" rx="2.77273" fill="#61C6FF" fill-opacity="0.2"/>
<rect x="110.909" y="110.909" width="22.1818" height="22.1818" rx="2.77273" stroke="white" stroke-width="1.38636"/>
<rect x="133.091" y="110.909" width="22.1818" height="22.1818" rx="2.77273" fill="#61C6FF" fill-opacity="0.2"/>
<rect x="133.091" y="110.909" width="22.1818" height="22.1818" rx="2.77273" stroke="white" stroke-width="1.38636"/>
<rect x="155.273" y="110.909" width="22.1818" height="22.1818" rx="2.77273" fill="#61C6FF" fill-opacity="0.2"/>
<rect x="155.273" y="110.909" width="22.1818" height="22.1818" rx="2.77273" stroke="white" stroke-width="1.38636"/>
<rect x="177.455" y="110.909" width="22.1818" height="22.1818" rx="2.77273" fill="#61C6FF" fill-opacity="0.2"/>
<rect x="177.455" y="110.909" width="22.1818" height="22.1818" rx="2.77273" stroke="white" stroke-width="1.38636"/>
<rect x="199.636" y="110.909" width="22.1818" height="22.1818" rx="2.77273" fill="#61C6FF" fill-opacity="0.2"/>
<rect x="199.636" y="110.909" width="22.1818" height="22.1818" rx="2.77273" stroke="white" stroke-width="1.38636"/>
<rect x="221.818" y="110.909" width="22.1818" height="22.1818" rx="2.77273" fill="#61C6FF" fill-opacity="0.2"/>
<rect x="221.818" y="110.909" width="22.1818" height="22.1818" rx="2.77273" stroke="white" stroke-width="1.38636"/>
<rect x="22.1819" y="133.091" width="22.1818" height="22.1818" rx="2.77273" fill="#61C6FF" fill-opacity="0.2"/>
<rect x="22.1819" y="133.091" width="22.1818" height="22.1818" rx="2.77273" stroke="white" stroke-width="1.38636"/>
<rect x="44.3635" y="133.091" width="22.1818" height="22.1818" rx="2.77273" fill="#61C6FF" fill-opacity="0.2"/>
<rect x="44.3635" y="133.091" width="22.1818" height="22.1818" rx="2.77273" stroke="white" stroke-width="1.38636"/>
<rect x="66.5454" y="133.091" width="22.1818" height="22.1818" rx="2.77273" fill="#61C6FF" fill-opacity="0.2"/>
<rect x="66.5454" y="133.091" width="22.1818" height="22.1818" rx="2.77273" stroke="white" stroke-width="1.38636"/>
<rect x="88.7273" y="133.091" width="22.1818" height="22.1818" rx="2.77273" fill="#61C6FF" fill-opacity="0.2"/>
<rect x="88.7273" y="133.091" width="22.1818" height="22.1818" rx="2.77273" stroke="white" stroke-width="1.38636"/>
<rect x="110.909" y="133.091" width="22.1818" height="22.1818" rx="2.77273" fill="#61C6FF" fill-opacity="0.2"/>
<rect x="110.909" y="133.091" width="22.1818" height="22.1818" rx="2.77273" stroke="white" stroke-width="1.38636"/>
<rect x="133.091" y="133.091" width="22.1818" height="22.1818" rx="2.77273" fill="#61C6FF" fill-opacity="0.2"/>
<rect x="133.091" y="133.091" width="22.1818" height="22.1818" rx="2.77273" stroke="white" stroke-width="1.38636"/>
<rect x="155.273" y="133.091" width="22.1818" height="22.1818" rx="2.77273" fill="#61C6FF" fill-opacity="0.2"/>
<rect x="155.273" y="133.091" width="22.1818" height="22.1818" rx="2.77273" stroke="white" stroke-width="1.38636"/>
<rect x="177.455" y="133.091" width="22.1818" height="22.1818" rx="2.77273" fill="#61C6FF" fill-opacity="0.2"/>
<rect x="177.455" y="133.091" width="22.1818" height="22.1818" rx="2.77273" stroke="white" stroke-width="1.38636"/>
<rect x="199.636" y="133.091" width="22.1818" height="22.1818" rx="2.77273" fill="#61C6FF" fill-opacity="0.2"/>
<rect x="199.636" y="133.091" width="22.1818" height="22.1818" rx="2.77273" stroke="white" stroke-width="1.38636"/>
<rect x="221.818" y="133.091" width="22.1818" height="22.1818" rx="2.77273" fill="#61C6FF" fill-opacity="0.2"/>
<rect x="221.818" y="133.091" width="22.1818" height="22.1818" rx="2.77273" stroke="white" stroke-width="1.38636"/>
<rect x="22.1819" y="155.273" width="22.1818" height="22.1818" rx="2.77273" fill="#61C6FF" fill-opacity="0.2"/>
<rect x="22.1819" y="155.273" width="22.1818" height="22.1818" rx="2.77273" stroke="white" stroke-width="1.38636"/>
<rect x="44.3635" y="155.273" width="22.1818" height="22.1818" rx="2.77273" fill="#61C6FF" fill-opacity="0.2"/>
<rect x="44.3635" y="155.273" width="22.1818" height="22.1818" rx="2.77273" stroke="white" stroke-width="1.38636"/>
<rect x="66.5454" y="155.273" width="22.1818" height="22.1818" rx="2.77273" fill="#61C6FF" fill-opacity="0.2"/>
<rect x="66.5454" y="155.273" width="22.1818" height="22.1818" rx="2.77273" stroke="white" stroke-width="1.38636"/>
<rect x="88.7273" y="155.273" width="22.1818" height="22.1818" rx="2.77273" fill="#61C6FF" fill-opacity="0.2"/>
<rect x="88.7273" y="155.273" width="22.1818" height="22.1818" rx="2.77273" stroke="white" stroke-width="1.38636"/>
<rect x="110.909" y="155.273" width="22.1818" height="22.1818" rx="2.77273" fill="#61C6FF" fill-opacity="0.2"/>
<rect x="110.909" y="155.273" width="22.1818" height="22.1818" rx="2.77273" stroke="white" stroke-width="1.38636"/>
<rect x="133.091" y="155.273" width="22.1818" height="22.1818" rx="2.77273" fill="#61C6FF" fill-opacity="0.2"/>
<rect x="133.091" y="155.273" width="22.1818" height="22.1818" rx="2.77273" stroke="white" stroke-width="1.38636"/>
<rect x="155.273" y="155.273" width="22.1818" height="22.1818" rx="2.77273" fill="#61C6FF" fill-opacity="0.2"/>
<rect x="155.273" y="155.273" width="22.1818" height="22.1818" rx="2.77273" stroke="white" stroke-width="1.38636"/>
<rect x="177.455" y="155.273" width="22.1818" height="22.1818" rx="2.77273" fill="#61C6FF" fill-opacity="0.2"/>
<rect x="177.455" y="155.273" width="22.1818" height="22.1818" rx="2.77273" stroke="white" stroke-width="1.38636"/>
<rect x="199.636" y="155.273" width="22.1818" height="22.1818" rx="2.77273" fill="#61C6FF" fill-opacity="0.2"/>
<rect x="199.636" y="155.273" width="22.1818" height="22.1818" rx="2.77273" stroke="white" stroke-width="1.38636"/>
<rect x="221.818" y="155.273" width="22.1818" height="22.1818" rx="2.77273" fill="#61C6FF" fill-opacity="0.2"/>
<rect x="221.818" y="155.273" width="22.1818" height="22.1818" rx="2.77273" stroke="white" stroke-width="1.38636"/>
<rect x="22.1819" y="177.455" width="22.1818" height="22.1818" rx="2.77273" fill="#61C6FF" fill-opacity="0.2"/>
<rect x="22.1819" y="177.455" width="22.1818" height="22.1818" rx="2.77273" stroke="white" stroke-width="1.38636"/>
<rect x="44.3635" y="177.455" width="22.1818" height="22.1818" rx="2.77273" fill="#61C6FF" fill-opacity="0.2"/>
<rect x="44.3635" y="177.455" width="22.1818" height="22.1818" rx="2.77273" stroke="white" stroke-width="1.38636"/>
<rect x="66.5454" y="177.455" width="22.1818" height="22.1818" rx="2.77273" fill="#61C6FF" fill-opacity="0.2"/>
<rect x="66.5454" y="177.455" width="22.1818" height="22.1818" rx="2.77273" stroke="white" stroke-width="1.38636"/>
<rect x="88.7273" y="177.455" width="22.1818" height="22.1818" rx="2.77273" fill="#61C6FF" fill-opacity="0.2"/>
<rect x="88.7273" y="177.455" width="22.1818" height="22.1818" rx="2.77273" stroke="white" stroke-width="1.38636"/>
<rect x="110.909" y="177.455" width="22.1818" height="22.1818" rx="2.77273" fill="#61C6FF" fill-opacity="0.2"/>
<rect x="110.909" y="177.455" width="22.1818" height="22.1818" rx="2.77273" stroke="white" stroke-width="1.38636"/>
<rect x="133.091" y="177.455" width="22.1818" height="22.1818" rx="2.77273" fill="#61C6FF" fill-opacity="0.2"/>
<rect x="133.091" y="177.455" width="22.1818" height="22.1818" rx="2.77273" stroke="white" stroke-width="1.38636"/>
<rect x="155.273" y="177.455" width="22.1818" height="22.1818" rx="2.77273" fill="#61C6FF" fill-opacity="0.2"/>
<rect x="155.273" y="177.455" width="22.1818" height="22.1818" rx="2.77273" stroke="white" stroke-width="1.38636"/>
<rect x="177.455" y="177.455" width="22.1818" height="22.1818" rx="2.77273" fill="#61C6FF" fill-opacity="0.2"/>
<rect x="177.455" y="177.455" width="22.1818" height="22.1818" rx="2.77273" stroke="white" stroke-width="1.38636"/>
<rect x="199.636" y="177.455" width="22.1818" height="22.1818" rx="2.77273" fill="#61C6FF" fill-opacity="0.2"/>
<rect x="199.636" y="177.455" width="22.1818" height="22.1818" rx="2.77273" stroke="white" stroke-width="1.38636"/>
<rect x="221.818" y="177.455" width="22.1818" height="22.1818" rx="2.77273" fill="#61C6FF" fill-opacity="0.2"/>
<rect x="221.818" y="177.455" width="22.1818" height="22.1818" rx="2.77273" stroke="white" stroke-width="1.38636"/>
<rect x="22.1819" y="199.636" width="22.1818" height="22.1818" rx="2.77273" fill="#61C6FF" fill-opacity="0.2"/>
<rect x="22.1819" y="199.636" width="22.1818" height="22.1818" rx="2.77273" stroke="white" stroke-width="1.38636"/>
<rect x="44.3635" y="199.636" width="22.1818" height="22.1818" rx="2.77273" fill="#61C6FF" fill-opacity="0.2"/>
<rect x="44.3635" y="199.636" width="22.1818" height="22.1818" rx="2.77273" stroke="white" stroke-width="1.38636"/>
<rect x="66.5454" y="199.636" width="22.1818" height="22.1818" rx="2.77273" fill="#61C6FF" fill-opacity="0.2"/>
<rect x="66.5454" y="199.636" width="22.1818" height="22.1818" rx="2.77273" stroke="white" stroke-width="1.38636"/>
<rect x="88.7273" y="199.636" width="22.1818" height="22.1818" rx="2.77273" fill="#61C6FF" fill-opacity="0.2"/>
<rect x="88.7273" y="199.636" width="22.1818" height="22.1818" rx="2.77273" stroke="white" stroke-width="1.38636"/>
<rect x="110.909" y="199.636" width="22.1818" height="22.1818" rx="2.77273" fill="#61C6FF" fill-opacity="0.2"/>
<rect x="110.909" y="199.636" width="22.1818" height="22.1818" rx="2.77273" stroke="white" stroke-width="1.38636"/>
<rect x="133.091" y="199.636" width="22.1818" height="22.1818" rx="2.77273" fill="#61C6FF" fill-opacity="0.2"/>
<rect x="133.091" y="199.636" width="22.1818" height="22.1818" rx="2.77273" stroke="white" stroke-width="1.38636"/>
<rect x="155.273" y="199.636" width="22.1818" height="22.1818" rx="2.77273" fill="#61C6FF" fill-opacity="0.2"/>
<rect x="155.273" y="199.636" width="22.1818" height="22.1818" rx="2.77273" stroke="white" stroke-width="1.38636"/>
<rect x="177.455" y="199.636" width="22.1818" height="22.1818" rx="2.77273" fill="#61C6FF" fill-opacity="0.2"/>
<rect x="177.455" y="199.636" width="22.1818" height="22.1818" rx="2.77273" stroke="white" stroke-width="1.38636"/>
<rect x="199.636" y="199.636" width="22.1818" height="22.1818" rx="2.77273" fill="#61C6FF" fill-opacity="0.2"/>
<rect x="199.636" y="199.636" width="22.1818" height="22.1818" rx="2.77273" stroke="white" stroke-width="1.38636"/>
<rect x="221.818" y="199.636" width="22.1818" height="22.1818" rx="2.77273" fill="#61C6FF" fill-opacity="0.2"/>
<rect x="221.818" y="199.636" width="22.1818" height="22.1818" rx="2.77273" stroke="white" stroke-width="1.38636"/>
<rect x="22.1819" y="221.818" width="22.1818" height="22.1818" rx="2.77273" fill="#61C6FF" fill-opacity="0.2"/>
<rect x="22.1819" y="221.818" width="22.1818" height="22.1818" rx="2.77273" stroke="white" stroke-width="1.38636"/>
<rect x="44.3635" y="221.818" width="22.1818" height="22.1818" rx="2.77273" fill="#61C6FF" fill-opacity="0.2"/>
<rect x="44.3635" y="221.818" width="22.1818" height="22.1818" rx="2.77273" stroke="white" stroke-width="1.38636"/>
<rect x="66.5454" y="221.818" width="22.1818" height="22.1818" rx="2.77273" fill="#61C6FF" fill-opacity="0.2"/>
<rect x="66.5454" y="221.818" width="22.1818" height="22.1818" rx="2.77273" stroke="white" stroke-width="1.38636"/>
<rect x="88.7273" y="221.818" width="22.1818" height="22.1818" rx="2.77273" fill="#61C6FF" fill-opacity="0.2"/>
<rect x="88.7273" y="221.818" width="22.1818" height="22.1818" rx="2.77273" stroke="white" stroke-width="1.38636"/>
<rect x="110.909" y="221.818" width="22.1818" height="22.1818" rx="2.77273" fill="#61C6FF" fill-opacity="0.2"/>
<rect x="110.909" y="221.818" width="22.1818" height="22.1818" rx="2.77273" stroke="white" stroke-width="1.38636"/>
<rect x="133.091" y="221.818" width="22.1818" height="22.1818" rx="2.77273" fill="#61C6FF" fill-opacity="0.2"/>
<rect x="133.091" y="221.818" width="22.1818" height="22.1818" rx="2.77273" stroke="white" stroke-width="1.38636"/>
<rect x="155.273" y="221.818" width="22.1818" height="22.1818" rx="2.77273" fill="#61C6FF" fill-opacity="0.2"/>
<rect x="155.273" y="221.818" width="22.1818" height="22.1818" rx="2.77273" stroke="white" stroke-width="1.38636"/>
<rect x="177.455" y="221.818" width="22.1818" height="22.1818" rx="2.77273" fill="#61C6FF" fill-opacity="0.2"/>
<rect x="177.455" y="221.818" width="22.1818" height="22.1818" rx="2.77273" stroke="white" stroke-width="1.38636"/>
<rect x="199.636" y="221.818" width="22.1818" height="22.1818" rx="2.77273" fill="#61C6FF" fill-opacity="0.2"/>
<rect x="199.636" y="221.818" width="22.1818" height="22.1818" rx="2.77273" stroke="white" stroke-width="1.38636"/>
<rect x="221.818" y="221.818" width="22.1818" height="22.1818" rx="2.77273" fill="#61C6FF" fill-opacity="0.2"/>
<rect x="221.818" y="221.818" width="22.1818" height="22.1818" rx="2.77273" stroke="white" stroke-width="1.38636"/>
<g opacity="0.3">
<g clip-path="url(#clip1_426_11829)">
<path d="M178.841 262.023C184.201 262.023 188.545 266.367 188.545 271.727C188.545 277.087 184.201 281.432 178.841 281.432L166.364 281.432L166.364 262.023L178.841 262.023Z" fill="#D1D2DE"/>
<circle cx="177.454" cy="271.727" r="4.15909" transform="rotate(90 177.454 271.727)" fill="black" fill-opacity="0.1"/>
</g>
<g clip-path="url(#clip2_426_11829)">
<path d="M166.364 262.023L166.364 281.432L144.182 281.432L144.182 262.023L166.364 262.023Z" fill="#D1D2DE"/>
<circle cx="155.273" cy="271.727" r="4.15909" transform="rotate(90 155.273 271.727)" fill="black" fill-opacity="0.1"/>
</g>
<g clip-path="url(#clip3_426_11829)">
<path d="M144.182 262.023L144.182 281.432L132.398 281.432C127.038 281.432 122.693 277.087 122.693 271.727C122.693 266.367 127.038 262.023 132.398 262.023L144.182 262.023Z" fill="#D1D2DE"/>
<circle cx="133.091" cy="271.727" r="4.15909" transform="rotate(90 133.091 271.727)" fill="black" fill-opacity="0.1"/>
</g>
<g clip-path="url(#clip4_426_11829)">
<path d="M193.316 286.977C199.866 286.977 205.903 290.522 209.095 296.241C209.248 296.515 209.248 296.848 209.095 297.122C205.903 302.842 199.866 306.386 193.316 306.386L188.545 306.386L188.545 286.977L193.316 286.977Z" fill="#D1D2DE"/>
<circle cx="199.636" cy="296.682" r="4.15909" transform="rotate(90 199.636 296.682)" fill="black" fill-opacity="0.1"/>
</g>
<g clip-path="url(#clip5_426_11829)">
<path d="M188.545 286.977L188.545 306.386L166.364 306.386L166.364 286.977L188.545 286.977Z" fill="#D1D2DE"/>
<circle cx="177.454" cy="296.682" r="4.15909" transform="rotate(90 177.454 296.682)" fill="black" fill-opacity="0.1"/>
</g>
<g clip-path="url(#clip6_426_11829)">
<path d="M166.364 286.977L166.364 306.386L154.58 306.386C149.22 306.386 144.875 302.041 144.875 296.682C144.875 291.322 149.22 286.977 154.58 286.977L166.364 286.977Z" fill="#D1D2DE"/>
<circle cx="155.273" cy="296.682" r="4.15909" transform="rotate(90 155.273 296.682)" fill="black" fill-opacity="0.1"/>
</g>
<g clip-path="url(#clip7_426_11829)">
<path d="M218.271 262.023C224.821 262.023 230.858 265.567 234.05 271.287C234.202 271.561 234.202 271.894 234.05 272.167C230.858 277.887 224.821 281.432 218.271 281.432L213.5 281.432L213.5 262.023L218.271 262.023Z" fill="#D1D2DE"/>
<circle cx="224.591" cy="271.727" r="4.15909" transform="rotate(90 224.591 271.727)" fill="black" fill-opacity="0.1"/>
</g>
<g clip-path="url(#clip8_426_11829)">
<path d="M213.5 262.023L213.5 281.432L201.716 281.432C196.356 281.432 192.011 277.087 192.011 271.727C192.011 266.367 196.356 262.023 201.716 262.023L213.5 262.023Z" fill="#D1D2DE"/>
<circle cx="202.409" cy="271.727" r="4.15909" transform="rotate(90 202.409 271.727)" fill="black" fill-opacity="0.1"/>
</g>
<g clip-path="url(#clip9_426_11829)">
<path d="M101.816 262.023C108.366 262.023 114.403 265.567 117.595 271.287C117.748 271.561 117.748 271.894 117.595 272.167C114.403 277.887 108.366 281.432 101.816 281.432L97.0454 281.432L97.0454 262.023L101.816 262.023Z" fill="#D1D2DE"/>
<circle cx="108.136" cy="271.727" r="4.15909" transform="rotate(90 108.136 271.727)" fill="black" fill-opacity="0.1"/>
</g>
<g clip-path="url(#clip10_426_11829)">
<path d="M97.0454 262.023L97.0454 281.432L74.8636 281.432L74.8636 262.023L97.0454 262.023Z" fill="#D1D2DE"/>
<circle cx="85.9544" cy="271.727" r="4.15909" transform="rotate(90 85.9544 271.727)" fill="black" fill-opacity="0.1"/>
</g>
<g clip-path="url(#clip11_426_11829)">
<path d="M74.8638 262.023L74.8638 281.432L52.682 281.432L52.682 262.023L74.8638 262.023Z" fill="#D1D2DE"/>
<circle cx="63.7728" cy="271.727" r="4.15909" transform="rotate(90 63.7728 271.727)" fill="black" fill-opacity="0.1"/>
</g>
<g clip-path="url(#clip12_426_11829)">
<path d="M52.6819 262.023L52.6819 281.432L40.8978 281.432C35.5381 281.432 31.1932 277.087 31.1932 271.727C31.1932 266.367 35.5381 262.023 40.8978 262.023L52.6819 262.023Z" fill="#D1D2DE"/>
<circle cx="41.5909" cy="271.727" r="4.15909" transform="rotate(90 41.5909 271.727)" fill="black" fill-opacity="0.1"/>
</g>
<g clip-path="url(#clip13_426_11829)">
<path d="M119.227 286.977L119.227 306.386L97.0455 306.386L97.0455 286.977L119.227 286.977Z" fill="#D1D2DE"/>
<circle cx="108.136" cy="296.682" r="4.15909" transform="rotate(90 108.136 296.682)" fill="black" fill-opacity="0.1"/>
</g>
<g clip-path="url(#clip14_426_11829)">
<path d="M97.0454 286.977L97.0454 306.386L74.8636 306.386L74.8636 286.977L97.0454 286.977Z" fill="#D1D2DE"/>
<circle cx="85.9544" cy="296.682" r="4.15909" transform="rotate(90 85.9544 296.682)" fill="black" fill-opacity="0.1"/>
</g>
<g clip-path="url(#clip15_426_11829)">
<path d="M74.8638 286.977L74.8638 306.386L52.682 306.386L52.682 286.977L74.8638 286.977Z" fill="#D1D2DE"/>
<circle cx="63.7728" cy="296.682" r="4.15909" transform="rotate(90 63.7728 296.682)" fill="black" fill-opacity="0.1"/>
</g>
</g>
<path d="M10.1112 303.326C9.9911 303.474 9.90329 303.622 9.84784 303.77C9.78776 303.918 9.75773 304.061 9.75773 304.2C9.75773 304.375 9.79932 304.519 9.8825 304.63C9.96568 304.74 10.0743 304.796 10.2083 304.796C10.3007 304.796 10.377 304.768 10.437 304.713C10.4971 304.657 10.5503 304.586 10.5965 304.498C10.6381 304.405 10.675 304.304 10.7074 304.193C10.7397 304.077 10.7744 303.964 10.8114 303.853C10.9592 303.41 11.158 303.086 11.4075 302.883C11.6524 302.675 11.9736 302.571 12.371 302.571C12.6391 302.571 12.8817 302.617 13.0989 302.709C13.3161 302.797 13.5032 302.929 13.6603 303.105C13.8128 303.275 13.9307 303.488 14.0139 303.742C14.1017 303.992 14.1456 304.276 14.1456 304.595C14.1456 305.256 13.9492 305.868 13.5564 306.432L12.4611 305.85C12.6414 305.646 12.7754 305.445 12.8632 305.246C12.951 305.048 12.9949 304.851 12.9949 304.657C12.9949 304.435 12.9441 304.271 12.8424 304.165C12.7407 304.054 12.6252 303.999 12.4958 303.999C12.4172 303.999 12.3502 304.013 12.2948 304.04C12.2347 304.068 12.1816 304.114 12.1353 304.179C12.0845 304.244 12.0383 304.329 11.9967 304.435C11.9551 304.537 11.9089 304.662 11.8581 304.81C11.8026 304.985 11.7425 305.159 11.6778 305.33C11.6085 305.496 11.5184 305.646 11.4075 305.78C11.2966 305.91 11.158 306.016 10.9916 306.099C10.8206 306.178 10.6057 306.217 10.3469 306.217C10.0881 306.217 9.85477 306.175 9.64682 306.092C9.43424 306.004 9.25401 305.884 9.10614 305.732C8.95364 305.575 8.8358 305.385 8.75261 305.163C8.66943 304.937 8.62784 304.685 8.62784 304.408C8.62784 304.149 8.66481 303.879 8.73875 303.597C8.80807 303.315 8.91204 303.044 9.05068 302.786L10.1112 303.326ZM10.7906 299.316L10.7906 297.355L8.77341 297.355L8.77341 295.996L14 295.996L14 297.355L11.8442 297.355L11.8442 299.316L14 299.316L14 300.675L8.77341 300.675L8.77341 299.316L10.7906 299.316ZM8.77341 292.502L14 292.502L14 293.861L8.77341 293.861L8.77341 292.502ZM11.1718 289.012L11.1718 288.562C11.1718 288.062 10.9546 287.813 10.5202 287.813C10.0858 287.813 9.86864 288.062 9.86864 288.562L9.86864 289.012L11.1718 289.012ZM14 289.012L14 290.371L8.77341 290.371L8.77341 288.208C8.77341 287.621 8.92591 287.173 9.23091 286.863C9.53591 286.549 9.96568 286.392 10.5202 286.392C11.0748 286.392 11.5045 286.549 11.8095 286.863C12.1145 287.173 12.267 287.621 12.267 288.208L12.267 289.012L14 289.012ZM11.4907 283.371L8.77341 285.278L8.77341 283.656L10.2014 282.685L8.77341 281.722L8.77341 280.1L11.4907 282.013L14 282.013L14 283.371L11.4907 283.371ZM12.0591 276.277L10.3192 276.887L12.0591 277.497L12.0591 276.277ZM13.0919 275.916L13.0919 277.857L14 278.169L14 279.618L8.77341 277.628L8.77341 276.145L14 274.156L14 275.604L13.0919 275.916ZM11.1094 271.163L11.1094 270.906C11.1094 270.638 11.054 270.432 10.9431 270.289C10.8322 270.146 10.6727 270.074 10.4648 270.074C10.2568 270.074 10.0974 270.146 9.98648 270.289C9.87557 270.432 9.82011 270.638 9.82011 270.906L9.82011 271.163L11.1094 271.163ZM14 268.175L14 269.866L11.9898 271.163L14 271.163L14 272.521L8.77341 272.521L8.77341 270.407C8.77341 270.116 8.81731 269.862 8.90511 269.645C8.98829 269.427 9.10382 269.249 9.2517 269.111C9.39958 268.968 9.57057 268.861 9.76466 268.792C9.95875 268.718 10.1667 268.681 10.3885 268.681C10.7859 268.681 11.1094 268.778 11.359 268.972C11.6039 269.162 11.7703 269.444 11.8581 269.818L14 268.175ZM12.8493 265.208L12.8493 264.896C12.8493 264.661 12.8123 264.45 12.7384 264.266C12.6645 264.081 12.5628 263.926 12.4334 263.801C12.304 263.672 12.1515 263.575 11.9759 263.51C11.7957 263.441 11.5993 263.406 11.3867 263.406C11.1787 263.406 10.9847 263.441 10.8044 263.51C10.6242 263.579 10.4694 263.679 10.34 263.808C10.2106 263.933 10.1089 264.088 10.035 264.273C9.96106 264.457 9.92409 264.665 9.92409 264.896L9.92409 265.208L12.8493 265.208ZM8.77341 266.567L8.77341 264.557C8.77341 264.201 8.84504 263.868 8.98829 263.559C9.13155 263.244 9.32333 262.972 9.56363 262.741C9.79932 262.505 10.0766 262.32 10.3955 262.186C10.7097 262.052 11.0401 261.985 11.3867 261.985C11.7287 261.985 12.0591 262.052 12.378 262.186C12.6922 262.315 12.9695 262.498 13.2098 262.734C13.4501 262.965 13.6419 263.237 13.7851 263.552C13.9284 263.861 14 264.196 14 264.557L14 266.567L8.77341 266.567Z" fill="#717C96"/>
<g clip-path="url(#clip16_426_11829)">
<path d="M178.841 76.25C178.841 70.8903 183.186 66.5455 188.546 66.5455C193.905 66.5455 198.25 70.8903 198.25 76.25V88.7273H178.841V76.25Z" fill="#D1D2DE"/>
<circle cx="188.546" cy="77.6364" r="4.15909" fill="black" fill-opacity="0.1"/>
</g>
<g clip-path="url(#clip17_426_11829)">
<path d="M178.841 88.7273H198.25V110.909H178.841V88.7273Z" fill="#D1D2DE"/>
<circle cx="188.546" cy="99.8182" r="4.15909" fill="black" fill-opacity="0.1"/>
</g>
<g clip-path="url(#clip18_426_11829)">
<path d="M178.841 110.909H198.25V122.693C198.25 128.053 193.905 132.398 188.546 132.398C183.186 132.398 178.841 128.053 178.841 122.693V110.909Z" fill="#D1D2DE"/>
<circle cx="188.546" cy="122" r="4.15909" fill="black" fill-opacity="0.1"/>
</g>
<g clip-path="url(#clip19_426_11829)">
<path d="M166.282 173.989C172.832 173.989 178.869 177.533 182.061 183.253C182.214 183.527 182.214 183.86 182.061 184.133C178.869 189.853 172.832 193.398 166.282 193.398L161.511 193.398L161.511 173.989L166.282 173.989Z" fill="#D1D2DE"/>
<circle cx="172.602" cy="183.693" r="4.15909" transform="rotate(90 172.602 183.693)" fill="black" fill-opacity="0.1"/>
</g>
<g clip-path="url(#clip20_426_11829)">
<path d="M161.511 173.989L161.511 193.398L139.329 193.398L139.329 173.989L161.511 173.989Z" fill="#D1D2DE"/>
<circle cx="150.42" cy="183.693" r="4.15909" transform="rotate(90 150.42 183.693)" fill="black" fill-opacity="0.1"/>
</g>
<g clip-path="url(#clip21_426_11829)">
<path d="M139.33 173.989L139.33 193.398L127.545 193.398C122.186 193.398 117.841 189.053 117.841 183.693C117.841 178.334 122.186 173.989 127.546 173.989L139.33 173.989Z" fill="#D1D2DE"/>
<circle cx="128.239" cy="183.693" r="4.15909" transform="rotate(90 128.239 183.693)" fill="black" fill-opacity="0.1"/>
</g>
<g clip-path="url(#clip22_426_11829)">
<path d="M72.0093 67.9318C78.5593 67.9318 84.5965 71.4764 87.7883 77.1961C87.941 77.4698 87.941 77.803 87.7883 78.0766C84.5965 83.7963 78.5593 87.3409 72.0093 87.3409L67.2385 87.3409L67.2385 67.9318L72.0093 67.9318Z" fill="#D1D2DE"/>
<circle cx="78.3294" cy="77.6364" r="4.15909" transform="rotate(90 78.3294 77.6364)" fill="black" fill-opacity="0.1"/>
</g>
<g clip-path="url(#clip23_426_11829)">
<path d="M67.2385 67.9318L67.2385 87.3409L55.4544 87.3409C50.0948 87.3409 45.7499 82.996 45.7499 77.6364C45.7499 72.2767 50.0948 67.9318 55.4544 67.9318L67.2385 67.9318Z" fill="#D1D2DE"/>
<circle cx="56.1475" cy="77.6364" r="4.15909" transform="rotate(90 56.1475 77.6364)" fill="black" fill-opacity="0.1"/>
</g>
<g clip-path="url(#clip24_426_11829)">
<path d="M119.227 286.977L119.227 306.386L97.0455 306.386L97.0455 286.977L119.227 286.977Z" fill="#D1D2DE"/>
<circle cx="108.136" cy="296.682" r="4.15909" transform="rotate(90 108.136 296.682)" fill="black" fill-opacity="0.1"/>
</g>
<g clip-path="url(#clip25_426_11829)">
<path d="M97.0454 286.977L97.0454 306.386L74.8636 306.386L74.8636 286.977L97.0454 286.977Z" fill="#D1D2DE"/>
<circle cx="85.9544" cy="296.682" r="4.15909" transform="rotate(90 85.9544 296.682)" fill="black" fill-opacity="0.1"/>
</g>
<g clip-path="url(#clip26_426_11829)">
<path d="M74.8638 286.977L74.8638 306.386L52.682 306.386L52.682 286.977L74.8638 286.977Z" fill="#D1D2DE"/>
<circle cx="63.7728" cy="296.682" r="4.15909" transform="rotate(90 63.7728 296.682)" fill="black" fill-opacity="0.1"/>
</g>
<path d="M123.99 286.98C130.541 286.98 136.578 290.525 139.77 296.245C139.922 296.518 139.922 296.852 139.77 297.125C136.578 302.845 130.541 306.39 123.99 306.39L119.22 306.39L119.22 286.98L123.99 286.98Z" fill="#D1D2DE"/>
<ellipse cx="130.291" cy="296.872" rx="4.15929" ry="4.15909" transform="rotate(90 130.291 296.872)" fill="black" fill-opacity="0.1"/>
<g clip-path="url(#clip27_426_11829)">
<path d="M101.816 262.023C108.366 262.023 114.403 265.567 117.595 271.287C117.748 271.561 117.748 271.894 117.595 272.168C114.403 277.887 108.366 281.432 101.816 281.432L97.0454 281.432L97.0454 262.023L101.816 262.023Z" fill="#D1D2DE"/>
<circle cx="108.136" cy="271.727" r="4.15909" transform="rotate(90 108.136 271.727)" fill="black" fill-opacity="0.1"/>
</g>
<g clip-path="url(#clip28_426_11829)">
<path d="M97.0454 262.023L97.0454 281.432L74.8636 281.432L74.8636 262.023L97.0454 262.023Z" fill="#D1D2DE"/>
<circle cx="85.9544" cy="271.727" r="4.15909" transform="rotate(90 85.9544 271.727)" fill="black" fill-opacity="0.1"/>
</g>
<g clip-path="url(#clip29_426_11829)">
<path d="M74.8638 262.023L74.8638 281.432L52.682 281.432L52.682 262.023L74.8638 262.023Z" fill="#D1D2DE"/>
<circle cx="63.7728" cy="271.727" r="4.15909" transform="rotate(90 63.7728 271.727)" fill="black" fill-opacity="0.1"/>
</g>
<g clip-path="url(#clip30_426_11829)">
<path d="M52.6819 262.023L52.6819 281.432L40.8978 281.432C35.5381 281.432 31.1932 277.087 31.1932 271.727C31.1932 266.368 35.5381 262.023 40.8978 262.023L52.6819 262.023Z" fill="#D1D2DE"/>
<circle cx="41.5909" cy="271.727" r="4.15909" transform="rotate(90 41.5909 271.727)" fill="black" fill-opacity="0.1"/>
</g>
<path d="M52.6887 286.98L52.6887 306.389L40.9046 306.389C35.545 306.389 31.2001 302.044 31.2001 296.685C31.2001 291.325 35.545 286.98 40.9046 286.98L52.6887 286.98Z" fill="#D1D2DE"/>
<circle cx="42.3975" cy="296.871" r="4.15909" transform="rotate(90 42.3975 296.871)" fill="black" fill-opacity="0.1"/>
<g filter="url(#filter0_d_426_11829)">
<path d="M166.661 183.421C167.374 183.153 168.785 183.317 169.156 184.119C169.528 184.921 169.75 185.961 169.765 185.708C169.737 184.941 169.802 184.173 169.958 183.421C170.124 182.939 170.502 182.561 170.983 182.396C171.425 182.256 171.894 182.226 172.35 182.307C172.811 182.402 173.219 182.667 173.494 183.05C173.841 183.916 174.037 184.835 174.073 185.768C174.11 184.972 174.245 184.184 174.474 183.421C174.722 183.071 175.085 182.819 175.499 182.708C175.99 182.618 176.493 182.618 176.984 182.708C177.387 182.842 177.74 183.096 177.994 183.436C178.31 184.223 178.5 185.055 178.559 185.901C178.559 186.109 178.663 185.322 178.99 184.802C179.252 184.023 180.097 183.604 180.876 183.866C181.655 184.129 182.074 184.974 181.812 185.753C181.812 186.718 181.812 186.674 181.812 187.327C181.812 187.981 181.812 188.56 181.812 189.11C181.758 189.979 181.639 190.843 181.455 191.694C181.198 192.448 180.838 193.163 180.386 193.819C179.665 194.621 179.069 195.527 178.618 196.507C178.508 196.994 178.458 197.493 178.47 197.993C178.468 198.454 178.528 198.914 178.648 199.359C178.041 199.424 177.428 199.424 176.821 199.359C176.242 199.27 175.529 198.111 175.336 197.755C175.24 197.563 175.044 197.443 174.83 197.443C174.617 197.443 174.421 197.563 174.325 197.755C173.999 198.319 173.271 199.344 172.84 199.404C171.845 199.522 169.78 199.404 168.176 199.404C168.176 199.404 168.458 197.918 167.834 197.384C167.21 196.849 166.601 196.225 166.141 195.809L164.908 194.442C164.039 193.635 163.402 192.609 163.066 191.472C162.754 190.075 162.784 189.407 163.066 188.843C163.354 188.376 163.804 188.033 164.329 187.877C164.765 187.798 165.214 187.829 165.636 187.966C165.927 188.088 166.179 188.289 166.364 188.545C166.705 189.006 166.824 189.229 166.676 188.724C166.527 188.219 166.2 187.847 166.037 187.238C165.719 186.519 165.528 185.75 165.473 184.966C165.533 184.262 166.025 183.67 166.705 183.48" fill="white"/>
<path fill-rule="evenodd" clip-rule="evenodd" d="M166.661 183.421C167.374 183.153 168.785 183.317 169.156 184.119C169.528 184.921 169.75 185.961 169.765 185.708C169.737 184.941 169.802 184.173 169.958 183.421C170.124 182.939 170.502 182.561 170.983 182.396C171.425 182.256 171.894 182.226 172.35 182.307C172.811 182.402 173.219 182.667 173.494 183.05C173.841 183.916 174.037 184.835 174.073 185.768C174.11 184.972 174.245 184.184 174.474 183.421C174.722 183.071 175.085 182.819 175.499 182.708C175.99 182.618 176.493 182.618 176.984 182.708C177.387 182.842 177.74 183.096 177.994 183.436C178.31 184.223 178.5 185.055 178.559 185.901C178.559 186.109 178.663 185.322 178.99 184.802C179.252 184.023 180.097 183.604 180.876 183.866C181.655 184.129 182.074 184.974 181.812 185.753C181.812 186.718 181.812 186.674 181.812 187.327C181.812 187.981 181.812 188.56 181.812 189.11C181.758 189.979 181.639 190.843 181.455 191.694C181.198 192.448 180.838 193.163 180.386 193.819C179.665 194.621 179.069 195.527 178.618 196.507C178.508 196.994 178.458 197.493 178.47 197.993C178.468 198.454 178.528 198.914 178.648 199.359C178.041 199.424 177.428 199.424 176.821 199.359C176.242 199.27 175.529 198.111 175.336 197.755C175.24 197.563 175.044 197.443 174.83 197.443C174.617 197.443 174.421 197.563 174.325 197.755C173.999 198.319 173.271 199.344 172.84 199.404C171.845 199.522 169.78 199.404 168.176 199.404C168.176 199.404 168.458 197.918 167.834 197.384C167.21 196.849 166.601 196.225 166.141 195.809L164.908 194.442C164.039 193.635 163.402 192.609 163.066 191.472C162.754 190.075 162.784 189.407 163.066 188.843C163.354 188.376 163.804 188.033 164.329 187.877C164.765 187.798 165.214 187.829 165.636 187.966C165.927 188.088 166.179 188.289 166.364 188.545C166.705 189.006 166.824 189.229 166.676 188.724C166.527 188.219 166.2 187.847 166.037 187.238C165.719 186.519 165.528 185.75 165.473 184.966C165.503 184.252 165.978 183.633 166.661 183.421Z" stroke="black" stroke-width="1.11404" stroke-linejoin="round"/>
<path d="M178.173 194.823V189.695C178.173 189.388 177.923 189.14 177.616 189.14C177.308 189.14 177.059 189.388 177.059 189.695V194.823C177.059 195.129 177.308 195.378 177.616 195.378C177.923 195.378 178.173 195.129 178.173 194.823Z" fill="black"/>
<path d="M175.232 194.821L175.202 189.691C175.2 189.385 174.949 189.138 174.642 189.14C174.334 189.141 174.086 189.391 174.088 189.697L174.118 194.827C174.119 195.133 174.37 195.38 174.678 195.378C174.985 195.377 175.233 195.127 175.232 194.821Z" fill="black"/>
<path d="M171.117 189.704L171.147 194.821C171.148 195.13 171.399 195.38 171.707 195.378C172.015 195.376 172.262 195.124 172.261 194.814L172.231 189.697C172.229 189.388 171.978 189.138 171.671 189.14C171.363 189.141 171.115 189.394 171.117 189.704Z" fill="black"/>
</g>
</g>
<defs>
<filter id="filter0_d_426_11829" x="161.098" y="181.706" width="22.5378" height="20.9817" filterUnits="userSpaceOnUse" color-interpolation-filters="sRGB">
<feFlood flood-opacity="0" result="BackgroundImageFix"/>
<feColorMatrix in="SourceAlpha" type="matrix" values="0 0 0 0 0 0 0 0 0 0 0 0 0 0 0 0 0 0 127 0" result="hardAlpha"/>
<feOffset dy="1.48539"/>
<feGaussianBlur stdDeviation="0.594156"/>
<feColorMatrix type="matrix" values="0 0 0 0 0 0 0 0 0 0 0 0 0 0 0 0 0 0 0.5 0"/>
<feBlend mode="normal" in2="BackgroundImageFix" result="effect1_dropShadow_426_11829"/>
<feBlend mode="normal" in="SourceGraphic" in2="effect1_dropShadow_426_11829" result="shape"/>
</filter>
<clipPath id="clip0_426_11829">
<rect width="244" height="313.318" fill="white"/>
</clipPath>
<clipPath id="clip1_426_11829">
<rect width="22.1818" height="22.1818" fill="white" transform="translate(188.545 260.636) rotate(90)"/>
</clipPath>
<clipPath id="clip2_426_11829">
<rect width="22.1818" height="22.1818" fill="white" transform="translate(166.364 260.636) rotate(90)"/>
</clipPath>
<clipPath id="clip3_426_11829">
<rect width="22.1818" height="22.1818" fill="white" transform="translate(144.182 260.636) rotate(90)"/>
</clipPath>
<clipPath id="clip4_426_11829">
<rect width="22.1818" height="22.1818" fill="white" transform="translate(210.727 285.591) rotate(90)"/>
</clipPath>
<clipPath id="clip5_426_11829">
<rect width="22.1818" height="22.1818" fill="white" transform="translate(188.545 285.591) rotate(90)"/>
</clipPath>
<clipPath id="clip6_426_11829">
<rect width="22.1818" height="22.1818" fill="white" transform="translate(166.364 285.591) rotate(90)"/>
</clipPath>
<clipPath id="clip7_426_11829">
<rect width="22.1818" height="22.1818" fill="white" transform="translate(235.682 260.636) rotate(90)"/>
</clipPath>
<clipPath id="clip8_426_11829">
<rect width="22.1818" height="22.1818" fill="white" transform="translate(213.5 260.636) rotate(90)"/>
</clipPath>
<clipPath id="clip9_426_11829">
<rect width="22.1818" height="22.1818" fill="white" transform="translate(119.227 260.636) rotate(90)"/>
</clipPath>
<clipPath id="clip10_426_11829">
<rect width="22.1818" height="22.1818" fill="white" transform="translate(97.0454 260.636) rotate(90)"/>
</clipPath>
<clipPath id="clip11_426_11829">
<rect width="22.1818" height="22.1818" fill="white" transform="translate(74.8638 260.636) rotate(90)"/>
</clipPath>
<clipPath id="clip12_426_11829">
<rect width="22.1818" height="22.1818" fill="white" transform="translate(52.6819 260.636) rotate(90)"/>
</clipPath>
<clipPath id="clip13_426_11829">
<rect width="22.1818" height="22.1818" fill="white" transform="translate(119.227 285.591) rotate(90)"/>
</clipPath>
<clipPath id="clip14_426_11829">
<rect width="22.1818" height="22.1818" fill="white" transform="translate(97.0454 285.591) rotate(90)"/>
</clipPath>
<clipPath id="clip15_426_11829">
<rect width="22.1818" height="22.1818" fill="white" transform="translate(74.8638 285.591) rotate(90)"/>
</clipPath>
<clipPath id="clip16_426_11829">
<rect width="22.1818" height="22.1818" fill="white" transform="translate(177.455 66.5455)"/>
</clipPath>
<clipPath id="clip17_426_11829">
<rect width="22.1818" height="22.1818" fill="white" transform="translate(177.455 88.7273)"/>
</clipPath>
<clipPath id="clip18_426_11829">
<rect width="22.1818" height="22.1818" fill="white" transform="translate(177.455 110.909)"/>
</clipPath>
<clipPath id="clip19_426_11829">
<rect width="22.1818" height="22.1818" fill="white" transform="translate(183.693 172.602) rotate(90)"/>
</clipPath>
<clipPath id="clip20_426_11829">
<rect width="22.1818" height="22.1818" fill="white" transform="translate(161.511 172.602) rotate(90)"/>
</clipPath>
<clipPath id="clip21_426_11829">
<rect width="22.1818" height="22.1818" fill="white" transform="translate(139.33 172.602) rotate(90)"/>
</clipPath>
<clipPath id="clip22_426_11829">
<rect width="22.1818" height="22.1818" fill="white" transform="translate(89.4204 66.5455) rotate(90)"/>
</clipPath>
<clipPath id="clip23_426_11829">
<rect width="22.1818" height="22.1818" fill="white" transform="translate(67.2385 66.5455) rotate(90)"/>
</clipPath>
<clipPath id="clip24_426_11829">
<rect width="22.1818" height="22.1818" fill="white" transform="translate(119.227 285.591) rotate(90)"/>
</clipPath>
<clipPath id="clip25_426_11829">
<rect width="22.1818" height="22.1818" fill="white" transform="translate(97.0454 285.591) rotate(90)"/>
</clipPath>
<clipPath id="clip26_426_11829">
<rect width="22.1818" height="22.1818" fill="white" transform="translate(74.8638 285.591) rotate(90)"/>
</clipPath>
<clipPath id="clip27_426_11829">
<rect width="22.1818" height="22.1818" fill="white" transform="translate(119.227 260.636) rotate(90)"/>
</clipPath>
<clipPath id="clip28_426_11829">
<rect width="22.1818" height="22.1818" fill="white" transform="translate(97.0454 260.636) rotate(90)"/>
</clipPath>
<clipPath id="clip29_426_11829">
<rect width="22.1818" height="22.1818" fill="white" transform="translate(74.8638 260.636) rotate(90)"/>
</clipPath>
<clipPath id="clip30_426_11829">
<rect width="22.1818" height="22.1818" fill="white" transform="translate(52.6819 260.636) rotate(90)"/>
</clipPath>
</defs>
</svg>
